<svg xmlns="http://www.w3.org/2000/svg" viewBox="0 0 65.45 71.3"><path d="M9.91,37.58c7.75-1.67,6.69-10.94,6.46-13-.38-3.12-4.05-8.58-9-8.14C1.06,17,.14,26.09.14,26.09c-.85,4.2,2,13.16,9.77,11.49M24.3,22C28.58,22,32,17.1,32,11S28.58,0,24.3,0s-7.75,4.92-7.75,11S20,22,24.3,22m18.44.73c5.73.75,9.4-5.36,10.13-10s-2.95-10-7-10.92-9.14,5.57-9.59,9.81c-.56,5.19.73,10.37,6.45,11.1m22.68,7.78c0-2.22-1.83-8.89-8.66-8.89S49,28,49,32.4c0,4.24.35,10.17,8.85,10s7.55-9.62,7.55-11.84M56.76,50s-8.85-6.85-14-14.25c-7-10.92-17-6.47-20.29-.93s-8.48,9.07-9.22,10S2.54,51.08,4.75,60.9s10,9.62,10,9.62a43.37,43.37,0,0,0,12.34-.93A25.93,25.93,0,0,1,39.42,70s15.5,5.19,19.74-4.81S56.76,50,56.76,50" style="fill:#407bf5"/><path d="M25.68,40.42V47H20.31a8.87,8.87,0,0,0-7.25,6.53,11.46,11.46,0,0,0,.8,7,8.8,8.8,0,0,0,6.3,4.35H30.24V40.5Zm-.09,20.43H21.54a4.27,4.27,0,0,1-3.69-3.4,6.42,6.42,0,0,1,.29-3.76,4.73,4.73,0,0,1,3.11-2.76h4.34v9.92Z" style="fill:#fff"/><path d="M32.7,47.6V60.43s.21,3.19,4.71,4.35H49V47.6H44V60.5H39.23s-1.53-.22-1.81-1.45V47.53Z" style="fill:#fff"/></svg>